M48
METRIC,TZ
T01C.2
T02C2.2
;LEADER: 12 
;HEADER: 
;CODE  : ASCII 
;FILE  : Hirose70239-1-2.drl for board F:/MyJob/Hirose70239/PCB/#Taaaaxs08424.tmp ... layers TOP and BOTTOM
;T01 Holesize 1. = 0.200000 Tolerance = +0.000000/-0.000000 PLATED MM Quantity = 70
;T02 Holesize 2. = 2.200000 Tolerance = +0.000000/-0.000000 NON_PLATED MM Quantity = 4
%
G90
T01
X114000Y-1714000
X220000Y-1529000
X383000Y-1860000
X449060Y-1579000
X605000Y-1660000
X769940Y-1579000
X1320000Y-1865000
X1642000Y-1968000
X1731000Y-1869000
X1854000Y-1508000
X1760900Y-1479600
X1610000Y-1320000
X1460000
X1220000Y-1508000
X1120900Y-1479600
X940000Y-1510000
X845000Y-1292000
X605000Y-1390000
X580000Y-1210000
X370000Y-1260000
X297300Y-1450000
X275000Y-1041000
X220000Y-1260000
X125000Y-904000
X130000Y-1012000
X246000Y-789000
X306000Y-619000
X456000Y-888000
X521000Y-887000
X589000
X840000Y-974000
X900000Y-915000
X973000Y-990000
X1046490Y-991500
X1070000Y-876000
X1116000Y-925000
X1173000Y-860000
X1199000Y-983000
X1259000Y-952000
X1510000Y-909000
X1648000Y-868000
X1954000Y-983000
X1958000Y-883000
X1984000Y-725000
X1986000Y-608000
Y-397000
X1987000Y-498000
X1734000Y-104000
X1611000Y-360000
X1419000Y-266000
X1356000Y-218000
X1354000Y-294000
X1222000Y-205000
X1114000Y-144000
X990000Y-257000
X989000Y-148000
X863000Y-232000
X828000Y-338000
X805000Y-164000
X735000Y-255000
X696000Y-350000
X634000Y-95000
X510000Y-163000
Y-253000
Y-342000
X372000Y-105000
X371000Y-346000
X354000Y-217000
X249000Y-422000
X130000Y-359000
T02
X150000Y-1950000
X1950000
Y-150000
X150000
M30
